<mxfile host="app.diagrams.net" modified="2024-03-21T14:03:25.055Z" agent="Mozilla/5.0 (Windows NT 10.0; Win64; x64) AppleWebKit/537.36 (KHTML, like Gecko) Chrome/120.0.0.0 Safari/537.36" version="24.0.7" etag="UqsfVAWz3-MIcdPt1NrE" type="github">
  <diagram name="第 1 页" id="xZRa9ZM_Pgs9Z2wsJvxV">
    <mxGraphModel>
      <root>
        <mxCell id="0" />
        <mxCell id="1" parent="0" />
      </root>
    </mxGraphModel>
  </diagram>
</mxfile>
